<svg width="78" height="78" viewBox="0 0 78 78" fill="none" xmlns="http://www.w3.org/2000/svg">
<path d="M29.7424 68.0574C29.6452 67.9103 29.5131 67.7896 29.3578 67.7061C29.2025 67.6225 29.029 67.5788 28.8527 67.5788H2.4375C2.15467 67.5788 1.88343 67.6911 1.68344 67.8911C1.48345 68.0911 1.37109 68.3624 1.37109 68.6452V75.5625C1.37109 75.8453 1.48345 76.1166 1.68344 76.3166C1.88343 76.5165 2.15467 76.6289 2.4375 76.6289H33.423C33.6156 76.6289 33.8047 76.5767 33.9701 76.4779C34.1354 76.3791 34.2709 76.2373 34.3622 76.0676C34.4534 75.8979 34.497 75.7067 34.4883 75.5143C34.4796 75.3218 34.4189 75.1353 34.3127 74.9746L29.7424 68.0574ZM3.50391 74.4961V69.7117H28.279L31.4404 74.4961H3.50391ZM46.8728 56.5904C47.1557 56.5904 47.4269 56.478 47.6269 56.278C47.8269 56.078 47.9392 55.8068 47.9392 55.524V47.6708L52.7007 42.4043C52.8779 42.2082 52.9761 41.9534 52.9762 41.6892V15.8614H58.6405C58.8475 15.8614 59.05 15.8012 59.2234 15.688C59.3967 15.5748 59.5334 15.4137 59.6167 15.2242L62.3835 8.93176H75.5625C75.8453 8.93176 76.1166 8.81941 76.3166 8.61942C76.5165 8.41943 76.6289 8.14818 76.6289 7.86536V2.4375C76.6289 2.15467 76.5165 1.88343 76.3166 1.68344C76.1166 1.48345 75.8453 1.37109 75.5625 1.37109H2.4375C2.15467 1.37109 1.88343 1.48345 1.68344 1.68344C1.48345 1.88343 1.37109 2.15467 1.37109 2.4375V7.86536C1.37109 8.14818 1.48345 8.41943 1.68344 8.61942C1.88343 8.81941 2.15467 8.93176 2.4375 8.93176H15.6168L18.3836 15.2242C18.4669 15.4137 18.6036 15.5748 18.7769 15.688C18.9503 15.8012 19.1528 15.8614 19.3598 15.8614H25.0241V41.6892C25.0241 41.9533 25.1222 42.2082 25.2996 42.4043L30.0609 47.6708V55.524C30.0609 55.8068 30.1733 56.078 30.3733 56.278C30.5733 56.478 30.8445 56.5904 31.1273 56.5904H35.2738V70.992C35.2738 71.303 35.4096 71.5982 35.6452 71.801L40.9652 76.3714C41.12 76.5044 41.3097 76.5902 41.5118 76.6186C41.7139 76.647 41.9198 76.6169 42.1053 76.5317C42.2907 76.4465 42.4479 76.31 42.558 76.1382C42.6681 75.9664 42.7267 75.7666 42.7266 75.5625V56.5904H46.8728ZM31.6005 46.1938L28.4919 42.7556H49.5078L46.3992 46.1938H31.6005ZM3.50391 3.50391H74.4961V6.79895H3.50391V3.50391ZM17.9464 8.93176H60.0534L57.9442 13.7285H20.0557L17.9464 8.93176ZM50.8432 15.8614V40.6228H27.1568V15.8614H50.8432ZM32.1936 48.3266H33.9972V51.3452C33.9972 51.628 34.1095 51.8992 34.3095 52.0992C34.5095 52.2992 34.7808 52.4116 35.0636 52.4116C35.3464 52.4116 35.6177 52.2992 35.8177 52.0992C36.0176 51.8992 36.13 51.628 36.13 51.3452V48.3266H37.9336V51.3452C37.9336 51.628 38.0459 51.8992 38.2459 52.0992C38.4459 52.2992 38.7172 52.4116 39 52.4116C39.2828 52.4116 39.5541 52.2992 39.7541 52.0992C39.9541 51.8992 40.0664 51.628 40.0664 51.3452V48.3266H41.8699V51.3452C41.8699 51.628 41.9822 51.8992 42.1822 52.0992C42.3822 52.2992 42.6534 52.4116 42.9363 52.4116C43.2191 52.4116 43.4903 52.2992 43.6903 52.0992C43.8903 51.8992 44.0027 51.628 44.0027 51.3452V48.3266H45.8064V54.4576H32.1936V48.3266ZM40.5937 73.2405L37.4065 70.5023V56.5904H40.5937V73.2405ZM39 36.3466C43.4689 36.3466 47.1047 32.7109 47.1047 28.2421C47.1047 23.7732 43.4689 20.1374 39 20.1374C34.5311 20.1374 30.8953 23.7732 30.8953 28.2421C30.8955 32.7109 34.5311 36.3466 39 36.3466ZM39 22.2702C42.2929 22.2702 44.9719 24.9492 44.9719 28.2421C44.9719 31.535 42.2929 34.2138 39 34.2138C35.7071 34.2138 33.0281 31.535 33.0281 28.2421C33.0283 24.9492 35.7071 22.2702 39 22.2702ZM75.5625 67.5789H51.1969C51.0206 67.5789 50.8471 67.6226 50.6918 67.7062C50.5365 67.7897 50.4044 67.9105 50.3073 68.0576L45.7368 74.9748C45.6306 75.1355 45.5699 75.322 45.5612 75.5144C45.5525 75.7068 45.5962 75.898 45.6874 76.0677C45.7786 76.2374 45.9141 76.3792 46.0795 76.478C46.2449 76.5769 46.434 76.6291 46.6266 76.6291H75.5625C75.8453 76.6291 76.1166 76.5167 76.3166 76.3167C76.5165 76.1167 76.6289 75.8455 76.6289 75.5627V68.6455C76.6289 68.5054 76.6014 68.3667 76.5478 68.2373C76.4942 68.1079 76.4156 67.9904 76.3166 67.8913C76.2176 67.7923 76.1 67.7137 75.9706 67.6601C75.8412 67.6065 75.7026 67.5789 75.5625 67.5789ZM74.4961 74.4961H48.6092L51.7704 69.7117H74.4961V74.4961ZM27.5728 59.9797L31.6359 64.0426C31.8358 64.2426 31.9482 64.5138 31.9482 64.7966C31.9481 65.0795 31.8358 65.3507 31.6358 65.5507C31.4358 65.7507 31.1645 65.863 30.8817 65.863C30.5989 65.863 30.3276 65.7506 30.1277 65.5506L26.0646 61.4879C25.8646 61.2879 25.7523 61.0167 25.7523 60.7338C25.7523 60.451 25.8646 60.1797 26.0646 59.9797C26.2646 59.7797 26.5359 59.6674 26.8187 59.6674C27.1016 59.6674 27.3728 59.7797 27.5728 59.9797ZM22.4674 59.9799L26.5302 64.0427C26.6308 64.1414 26.7109 64.259 26.7658 64.3888C26.8207 64.5186 26.8493 64.6581 26.85 64.799C26.8507 64.9399 26.8235 65.0796 26.7699 65.2099C26.7162 65.3403 26.6373 65.4587 26.5376 65.5584C26.438 65.658 26.3195 65.7369 26.1892 65.7905C26.0588 65.8441 25.9191 65.8713 25.7782 65.8706C25.6373 65.8699 25.4979 65.8412 25.3681 65.7863C25.2383 65.7314 25.1207 65.6513 25.022 65.5506L20.9591 61.4879C20.7592 61.2879 20.6468 61.0167 20.6468 60.7338C20.6469 60.451 20.7592 60.1798 20.9592 59.9798C21.1592 59.7798 21.4305 59.6675 21.7133 59.6675C21.9961 59.6675 22.2674 59.7799 22.4674 59.9799ZM29.4941 57.2346C29.5947 57.3333 29.6748 57.4509 29.7297 57.5807C29.7846 57.7106 29.8132 57.85 29.8139 57.9909C29.8146 58.1318 29.7873 58.2715 29.7337 58.4019C29.6801 58.5322 29.6012 58.6506 29.5015 58.7503C29.4018 58.8499 29.2834 58.9288 29.153 58.9824C29.0227 59.036 28.883 59.0632 28.7421 59.0625C28.6011 59.0618 28.4617 59.0331 28.3319 58.9782C28.2021 58.9233 28.0845 58.8432 27.9859 58.7425L23.9228 54.6795C23.7275 54.4786 23.6192 54.2089 23.6212 53.9286C23.6232 53.6484 23.7354 53.3803 23.9335 53.1822C24.1317 52.984 24.3998 52.8719 24.6801 52.8699C24.9603 52.8679 25.23 52.9763 25.4309 53.1716L29.4941 57.2346ZM56.5754 65.6794C56.3755 65.4794 56.2632 65.2082 56.2632 64.9254C56.2632 64.6426 56.3755 64.3714 56.5754 64.1715L60.6383 60.1084C60.8383 59.9085 61.1095 59.7961 61.3923 59.7961C61.6751 59.796 61.9463 59.9083 62.1463 60.1083C62.3463 60.3083 62.4587 60.5795 62.4587 60.8623C62.4587 61.1451 62.3463 61.4164 62.1463 61.6163L58.0835 65.6794C57.8752 65.8876 57.6024 65.9918 57.3294 65.9918C57.0564 65.9918 56.7837 65.8876 56.5754 65.6794ZM17.3617 60.1084L21.4247 64.1715C21.5254 64.2701 21.6054 64.3878 21.6603 64.5176C21.7152 64.6474 21.7439 64.7868 21.7445 64.9277C21.7452 65.0687 21.718 65.2083 21.6644 65.3387C21.6107 65.469 21.5318 65.5874 21.4321 65.6871C21.3325 65.7867 21.214 65.8656 21.0837 65.9192C20.9533 65.9728 20.8136 66.0001 20.6727 65.9993C20.5318 65.9986 20.3924 65.97 20.2626 65.915C20.1328 65.8601 20.0152 65.78 19.9165 65.6794L15.8535 61.6163C15.6536 61.4164 15.5413 61.1452 15.5413 60.8624C15.5413 60.5796 15.6536 60.3084 15.8535 60.1084C15.9525 60.0094 16.0701 59.9308 16.1995 59.8772C16.3288 59.8235 16.4675 59.7959 16.6076 59.7959C16.7477 59.7959 16.8864 59.8235 17.0157 59.8772C17.1451 59.9308 17.2627 60.0094 17.3617 60.1084ZM51.4698 65.5506C51.2698 65.3506 51.1575 65.0794 51.1575 64.7966C51.1575 64.5138 51.2698 64.2426 51.4698 64.0426L55.5328 59.9797C55.6318 59.8807 55.7494 59.8022 55.8788 59.7486C56.0082 59.695 56.1468 59.6674 56.2869 59.6674C56.4269 59.6674 56.5656 59.695 56.695 59.7486C56.8244 59.8022 56.9419 59.8808 57.0409 59.9798C57.1399 60.0788 57.2185 60.1964 57.2721 60.3258C57.3257 60.4552 57.3532 60.5938 57.3532 60.7339C57.3532 60.8739 57.3256 61.0126 57.272 61.142C57.2184 61.2713 57.1399 61.3889 57.0409 61.4879L52.9778 65.5506C52.7696 65.7589 52.4966 65.8631 52.2237 65.8631C51.9509 65.8631 51.6779 65.7589 51.4698 65.5506ZM49.26 59.0551C49.0492 59.0551 48.843 58.9926 48.6676 58.8754C48.4923 58.7582 48.3556 58.5917 48.2749 58.3969C48.1942 58.202 48.1731 57.9876 48.2142 57.7808C48.2553 57.5739 48.3568 57.3839 48.5059 57.2348L52.5688 53.1718C52.7697 52.9765 53.0394 52.8681 53.3196 52.87C53.5998 52.872 53.868 52.9842 54.0662 53.1823C54.2643 53.3804 54.3765 53.6486 54.3785 53.9288C54.3805 54.209 54.2722 54.4787 54.0769 54.6797L50.014 58.7427C49.9151 58.8419 49.7976 58.9206 49.6682 58.9742C49.5388 59.0278 49.4001 59.0553 49.26 59.0551ZM46.3641 64.0427L50.427 59.9799C50.6277 59.7832 50.8978 59.6736 51.1788 59.675C51.4598 59.6764 51.7289 59.7887 51.9275 59.9874C52.1262 60.1861 52.2385 60.4551 52.2399 60.7361C52.2413 61.0171 52.1317 61.2873 51.9351 61.4879L47.8722 65.5506C47.7733 65.6498 47.6557 65.7285 47.5263 65.7821C47.3969 65.8357 47.2582 65.8632 47.1181 65.8631C46.9072 65.863 46.7011 65.8005 46.5257 65.6833C46.3504 65.5661 46.2138 65.3996 46.1331 65.2047C46.0524 65.0099 46.0313 64.7955 46.0724 64.5887C46.1135 64.3819 46.215 64.1919 46.3641 64.0427Z" fill="black"/>
</svg>
