<svg width="78" height="78" viewBox="0 0 78 78" fill="none" xmlns="http://www.w3.org/2000/svg">
<g clip-path="url(#clip0_648_1156)">
<path d="M27.08 18.3149C26.8559 19.0046 27.0765 19.7437 27.6417 20.1982L32.6744 24.2432L30.9805 30.4739C30.7903 31.1735 31.0464 31.9011 31.6334 32.328C32.2205 32.7539 32.9912 32.7726 33.598 32.3756L39.0003 28.8393L44.4027 32.3758C44.6843 32.5614 45.014 32.6606 45.3512 32.6611C45.7166 32.6606 46.0723 32.5439 46.367 32.328C46.9543 31.9015 47.2105 31.1735 47.02 30.4739L45.3261 24.2434L50.3584 20.1985C50.9241 19.7442 51.1447 19.0049 50.9204 18.3149C50.6963 17.6248 50.0833 17.1563 49.3589 17.1213L42.9097 16.8069L40.6179 10.7707C40.3606 10.0926 39.7254 9.65433 39.0001 9.65433C38.2748 9.65433 37.6397 10.0925 37.3825 10.7706L35.0905 16.807L28.6418 17.1213C27.9171 17.1563 27.3041 17.6248 27.08 18.3149ZM35.6716 19.2189C36.0078 19.2026 36.332 19.0885 36.6044 18.8906C36.8767 18.6927 37.0854 18.4196 37.2048 18.1048L39 13.3768L40.7952 18.1053C40.9148 18.4199 41.1235 18.6928 41.3958 18.8906C41.6681 19.0884 41.9922 19.2025 42.3284 19.2189L47.3797 19.4653L43.4376 22.6336C43.1752 22.8445 42.98 23.1273 42.876 23.4475C42.772 23.7677 42.7636 24.1112 42.852 24.4361L44.1788 29.3163L39.9473 26.5462C39.6656 26.3619 39.3362 26.2637 38.9996 26.2638C38.6629 26.2638 38.3336 26.362 38.0519 26.5464L33.8208 29.3163L35.1475 24.4364C35.236 24.1115 35.2276 23.7678 35.1236 23.4476C35.0195 23.1273 34.8243 22.8444 34.5618 22.6336L30.6199 19.4654L35.6716 19.2189ZM37.7812 5.69126V1.21875C37.7812 0.895517 37.9096 0.585524 38.1382 0.356964C38.3668 0.128404 38.6768 0 39 0C39.3232 0 39.6332 0.128404 39.8618 0.356964C40.0903 0.585524 40.2187 0.895517 40.2187 1.21875V5.69126C40.2187 6.01449 40.0903 6.32448 39.8618 6.55304C39.6332 6.7816 39.3232 6.91001 39 6.91001C38.6768 6.91001 38.3668 6.7816 38.1382 6.55304C37.9096 6.32448 37.7812 6.01449 37.7812 5.69126ZM45.2033 12.912C44.987 12.6718 44.875 12.3556 44.8919 12.0328C44.9088 11.71 45.0533 11.4072 45.2935 11.1909L50.2774 6.70312C50.3963 6.59602 50.5352 6.51339 50.6861 6.45996C50.8369 6.40653 50.9968 6.38333 51.1567 6.3917C51.3165 6.40006 51.4731 6.43983 51.6176 6.50873C51.7621 6.57762 51.8915 6.6743 51.9986 6.79324C52.1057 6.91217 52.1884 7.05104 52.2418 7.20191C52.2952 7.35278 52.3184 7.51269 52.3101 7.67253C52.3017 7.83236 52.2619 7.98898 52.193 8.13344C52.1241 8.27791 52.0275 8.40739 51.9085 8.51449L46.9244 13.0022C46.7009 13.2041 46.4104 13.3157 46.1093 13.3153C45.9384 13.3155 45.7694 13.2797 45.6133 13.2103C45.4572 13.1408 45.3175 13.0392 45.2033 12.912ZM26.0013 6.79331C26.1083 6.67436 26.2378 6.57766 26.3823 6.50875C26.5268 6.43984 26.6834 6.40006 26.8432 6.39168C27.0031 6.38331 27.163 6.4065 27.3139 6.45994C27.4648 6.51338 27.6036 6.59601 27.7226 6.70312L32.7067 11.1909C32.9469 11.4072 33.0913 11.71 33.1082 12.0328C33.1251 12.3556 33.0131 12.6719 32.7968 12.9121C32.5805 13.1523 32.2776 13.2968 31.9548 13.3137C31.632 13.3306 31.3157 13.2185 31.0755 13.0022L26.0914 8.51449C25.8512 8.29821 25.7068 7.99536 25.6899 7.67258C25.673 7.3498 25.785 7.03352 26.0013 6.79331ZM54.6356 20.1982L59.6683 24.2432L57.9744 30.4739C57.7843 31.1735 58.0404 31.9011 58.6273 32.328C59.214 32.7539 59.9849 32.7725 60.592 32.3756L65.9942 28.8393L71.3966 32.3758C71.6782 32.5614 72.0079 32.6606 72.3451 32.6611C72.7105 32.6606 73.0662 32.5439 73.361 32.328C73.9479 31.9018 74.2042 31.1741 74.0139 30.4739L72.32 24.2434L77.3524 20.1985C77.9179 19.7444 78.1385 19.005 77.9142 18.3149C77.6901 17.6248 77.0771 17.1563 76.3528 17.1213L69.9037 16.8069L67.612 10.7707C67.3547 10.0926 66.7195 9.65433 65.9942 9.65433C65.2688 9.65433 64.6336 10.0925 64.3763 10.7706L62.0846 16.8069L55.6359 17.1212C54.9111 17.1562 54.298 17.6248 54.0739 18.3149C53.8497 19.0049 54.0703 19.7442 54.6356 20.1982ZM62.6654 19.2189C63.0017 19.2026 63.326 19.0885 63.5984 18.8906C63.8708 18.6926 64.0796 18.4195 64.199 18.1047L65.9941 13.3767L67.789 18.1045C67.9084 18.4193 68.1171 18.6925 68.3895 18.8904C68.6619 19.0883 68.9862 19.2024 69.3225 19.2188L74.3737 19.4651L70.4322 22.6331C70.1696 22.8439 69.9743 23.1268 69.8701 23.4471C69.766 23.7673 69.7577 24.111 69.8461 24.4359L71.1729 29.3161L66.9413 26.5461C66.6597 26.3616 66.3303 26.2634 65.9937 26.2634C65.657 26.2634 65.3277 26.3617 65.046 26.5462L60.8148 29.3161L62.1416 24.4362C62.23 24.1113 62.2216 23.7677 62.1176 23.4475C62.0135 23.1272 61.8183 22.8443 61.5558 22.6334L57.6139 19.4651L62.6654 19.2189ZM0.647444 20.1982L5.68012 24.2432L3.98621 30.4739C3.79608 31.1735 4.05217 31.9011 4.63915 32.328C5.22629 32.7539 5.99699 32.7726 6.60378 32.3756L12.006 28.8393L17.4085 32.3758C17.69 32.5614 18.0197 32.6606 18.3569 32.6611C18.7223 32.6606 19.0781 32.5439 19.3728 32.328C19.9598 31.9018 20.216 31.1741 20.0257 30.4739L18.3318 24.2434L23.3642 20.1985C23.9294 19.7447 24.1501 19.0055 23.926 18.3142C23.7015 17.6245 23.0884 17.1562 22.3647 17.1212L15.9155 16.8067L13.6238 10.7707C13.3665 10.0926 12.7313 9.65433 12.006 9.65433C11.2806 9.65433 10.6455 10.0925 10.3882 10.7706L8.09644 16.8069L1.64773 17.1212C0.923034 17.1562 0.310002 17.6248 0.0860571 18.3142C-0.13865 19.0044 0.0817915 19.7441 0.647444 20.1982ZM8.67718 19.2189C9.01351 19.2026 9.33778 19.0885 9.6102 18.8906C9.88262 18.6926 10.0914 18.4195 10.2108 18.1047L12.0059 13.3767L13.8008 18.1045C13.9202 18.4193 14.1289 18.6925 14.4013 18.8904C14.6737 19.0883 14.998 19.2024 15.3343 19.2188L20.3856 19.4651L16.444 22.6331C16.1814 22.8439 15.9861 23.1268 15.882 23.4471C15.7779 23.7673 15.7695 24.111 15.8579 24.4359L17.1847 29.3161L12.9532 26.5461C12.6715 26.3616 12.3422 26.2634 12.0055 26.2634C11.6688 26.2634 11.3395 26.3617 11.0579 26.5462L6.82666 29.3161L8.15342 24.4362C8.24178 24.1113 8.23343 23.7677 8.12938 23.4475C8.02533 23.1272 7.83012 22.8443 7.56766 22.6334L3.62576 19.4651L8.67718 19.2189ZM77.8082 64.7359C76.9506 61.9666 75.1943 59.48 72.8623 57.7339C71.7612 56.9082 70.5429 56.2516 69.2478 55.7858C71.0258 54.3904 72.1715 52.224 72.1715 49.7937C72.1715 45.5942 68.7548 42.1777 64.5555 42.1777C60.356 42.1777 56.9394 45.5942 56.9394 49.7937C56.9394 52.2212 58.0823 54.3853 59.8568 55.781C57.4785 56.6298 55.3716 58.1213 53.7581 60.131C52.9981 59.0674 52.1258 58.0887 51.1563 57.2118C49.2062 55.4467 46.8948 54.1281 44.383 53.3477C47.0239 51.597 48.7698 48.5993 48.7698 45.2004C48.7698 39.8135 44.387 35.4309 39.0001 35.4309C33.6133 35.4309 29.2305 39.8135 29.2305 45.2004C29.2305 48.5993 30.9762 51.597 33.6171 53.3477C31.1052 54.128 28.7937 55.4466 26.8437 57.2118C25.8742 58.0886 25.002 59.0673 24.242 60.1308C22.6287 58.121 20.5218 56.6295 18.1434 55.7805C19.9177 54.3849 21.0607 52.2207 21.0607 49.7932C21.0607 45.5937 17.6441 42.1773 13.4448 42.1773C9.24527 42.1773 5.82865 45.5937 5.82865 49.7932C5.82865 52.2234 6.97428 54.3899 8.75213 55.7854C7.457 56.2512 6.23868 56.9078 5.13747 57.7334C2.80555 59.4794 1.04917 61.9661 0.191631 64.7353C-0.204615 66.0144 0.0149126 67.3125 0.80969 68.3908C1.60431 69.4688 2.77949 70.0623 4.1186 70.0623H20.9667V72.2618C20.9667 75.426 23.5409 78.0002 26.7051 78.0002H51.2949C54.4589 78.0002 57.0332 75.426 57.0334 72.2618V70.0629H73.8814C75.2206 70.0629 76.3958 69.4692 77.1903 68.3914C77.9849 67.3131 78.2044 66.0148 77.8082 64.7359ZM64.5555 44.6152C67.4109 44.6152 69.734 46.9383 69.734 49.7937C69.734 52.6492 67.4109 54.9723 64.5555 54.9723C61.7 54.9723 59.3769 52.6492 59.3769 49.7937C59.3769 46.9383 61.7 44.6152 64.5555 44.6152ZM31.668 45.2004C31.668 41.1575 34.9572 37.8684 39.0001 37.8684C43.043 37.8684 46.3323 41.1575 46.3323 45.2004C46.3323 49.2421 43.0452 52.5303 39.0041 52.5324H38.996C34.955 52.5301 31.668 49.2419 31.668 45.2004ZM13.4448 44.6146C16.3002 44.6146 18.6232 46.9377 18.6232 49.7931C18.6232 52.6486 16.3002 54.9717 13.4448 54.9717C10.5892 54.9717 8.26615 52.6486 8.26615 49.7931C8.26615 46.9377 10.5892 44.6146 13.4448 44.6146ZM21.125 67.6246H4.11875C3.55782 67.6246 3.10475 67.3958 2.77188 66.9443C2.43885 66.4927 2.3543 65.9921 2.52021 65.4563C4.01074 60.643 8.40113 57.4092 13.4448 57.4092C17.2599 57.4092 20.7353 59.2526 22.8729 62.373C22.0235 64.0232 21.434 65.7946 21.125 67.6246ZM54.5959 72.2617C54.5957 74.0817 53.1149 75.5625 51.2949 75.5625H26.7051C24.885 75.5625 23.4042 74.0817 23.4042 72.2617V68.9096C24.2866 60.9591 30.9782 54.9719 38.996 54.9699L39.0001 54.97L39.0041 54.9699C47.0218 54.972 53.7132 60.9591 54.5959 68.9096V72.2617ZM75.2282 66.945C74.8954 67.3964 74.4425 67.6252 73.8814 67.6252H56.8752C56.5662 65.7951 55.9766 64.0237 55.1274 62.3733C57.2651 59.253 60.7403 57.4098 64.5553 57.4098C69.599 57.4098 73.9894 60.6438 75.4799 65.4571C75.6458 65.9926 75.5611 66.4932 75.2282 66.945Z" fill="black"/>
</g>
<defs>
<clipPath id="clip0_648_1156">
<rect width="78" height="78" fill="white"/>
</clipPath>
</defs>
</svg>
