<svg width="78" height="78" viewBox="0 0 78 78" fill="none" xmlns="http://www.w3.org/2000/svg">
<path fill-rule="evenodd" clip-rule="evenodd" d="M51.3858 25.4135L46.7337 33.4715C46.1508 34.4809 44.8598 34.8268 43.8503 34.244L35.1198 29.2035C34.1104 28.6206 33.7644 27.3297 34.3473 26.3201L38.9996 18.2622L36.3487 16.7316C35.5124 16.2489 35.2255 15.1779 35.7083 14.3416L38.4244 9.63728C38.9072 8.80099 39.9781 8.51392 40.8144 8.99676L43.4653 10.5272L48.1175 2.46938C48.7004 1.45982 49.9913 1.11387 51.0009 1.69672L59.7314 6.73736C60.741 7.32022 61.0868 8.61104 60.5039 9.62061L55.8517 17.6786L72.903 27.5231C73.7391 28.006 74.0262 29.0769 73.5434 29.9131L70.8273 34.6176C70.3444 35.4539 69.2734 35.7408 68.4373 35.258L51.3858 25.4135ZM40.0702 16.4078L42.3947 12.3817L40.0829 11.0469L37.7583 15.0731L40.0702 16.4078ZM54.7811 19.5329L52.4564 23.5592L69.1686 33.208L71.4932 29.1816L54.7811 19.5329ZM36.2168 27.3644L44.8946 32.3744L58.6343 8.57632L49.9566 3.56628L36.2168 27.3644ZM18.0072 54.8657C10.8523 54.7046 5.00597 49.2437 4.2376 42.2579C4.20018 41.9262 4.23323 41.5902 4.33458 41.2721C4.43593 40.9539 4.60329 40.6608 4.82572 40.4118C5.04816 40.1628 5.32065 39.9635 5.62538 39.827C5.93012 39.6906 6.26022 39.62 6.59411 39.6199C9.0063 39.6186 14.1185 39.6182 18.0072 39.6179V38.28C18.0072 37.996 18.12 37.7237 18.3208 37.5229C18.5215 37.3222 18.7938 37.2094 19.0778 37.2094H61.4534C61.7373 37.2094 62.0096 37.3222 62.2104 37.5229C62.4111 37.7237 62.5239 37.996 62.5239 38.28V40.8853H67.8478C68.1318 40.8853 68.4041 40.9981 68.6048 41.1989C68.8056 41.3996 68.9184 41.672 68.9184 41.9559V52.5312C68.9184 52.8151 68.8056 53.0874 68.6048 53.2882C68.4041 53.489 68.1318 53.6017 67.8478 53.6017H62.5239V56.2071C62.5239 56.491 62.4111 56.7633 62.2104 56.9641C62.0096 57.1649 61.7373 57.2777 61.4534 57.2777H56.1605C56.2712 58.5462 56.5144 60.1775 57.0392 61.8309C57.3617 62.8469 58.0443 64.3532 58.7437 65.7951H61.4534C61.7373 65.7951 62.0096 65.9079 62.2104 66.1087C62.4111 66.3095 62.5239 66.5818 62.5239 66.8657V75.5156C62.5239 75.7996 62.4111 76.0719 62.2104 76.2726C62.0096 76.4734 61.7373 76.5862 61.4534 76.5862H19.0778C18.7938 76.5862 18.5215 76.4734 18.3208 76.2726C18.12 76.0719 18.0072 75.7996 18.0072 75.5156V66.8657C18.0072 66.5818 18.12 66.3095 18.3208 66.1087C18.5215 65.9079 18.7938 65.7951 19.0778 65.7951H21.8628C22.4911 64.4904 23.1093 63.0708 23.4895 61.839C24.0179 60.1265 24.264 58.518 24.3757 57.2777H19.0778C18.7938 57.2777 18.5215 57.1649 18.3208 56.9641C18.12 56.7633 18.0072 56.491 18.0072 56.2071V54.8657ZM18.0072 41.7591C14.1188 41.7594 9.00707 41.7598 6.59518 41.761H6.59473C6.56222 41.7611 6.53009 41.7679 6.50043 41.7812C6.47076 41.7945 6.44424 41.8139 6.42258 41.8381C6.40093 41.8624 6.38463 41.8909 6.37476 41.9219C6.3649 41.9528 6.36168 41.9855 6.36531 42.0178L6.36562 42.0207C7.01638 47.9377 11.9556 52.5633 18.0072 52.7237V41.7591ZM62.5239 43.0265V51.4606H66.7772V43.0265H62.5239ZM54.0122 57.2777H26.5245C26.4104 58.6615 26.1424 60.5034 25.5354 62.4703C25.2158 63.5062 24.7415 64.6675 24.2273 65.7951H56.3725C55.7936 64.5568 55.2742 63.3481 54.9983 62.4786C54.3939 60.5745 54.1267 58.6974 54.0122 57.2777ZM60.3828 67.9363H20.1484V74.445H60.3828V67.9363ZM60.3828 39.3505H20.1484V55.1365H60.3828V39.3505ZM20.0046 28.4446C19.5271 27.967 19.5271 27.1917 20.0046 26.7142C20.4821 26.2367 21.2573 26.2367 21.735 26.7142L26.432 31.4112C26.9094 31.8887 26.9094 32.6641 26.432 33.1416C25.9545 33.6191 25.1791 33.6191 24.7016 33.1416L20.0046 28.4446ZM26.0833 23.1714C25.9994 22.8579 26.0435 22.5241 26.2057 22.2431C26.3679 21.9621 26.635 21.757 26.9483 21.6728C27.6006 21.4982 28.2721 21.8857 28.4468 22.538L30.1662 28.9544C30.25 29.2678 30.2059 29.6017 30.0437 29.8827C29.8815 30.1637 29.6143 30.3688 29.301 30.4529C28.9875 30.5367 28.6536 30.4927 28.3727 30.3304C28.0917 30.1682 27.8866 29.901 27.8025 29.5877L26.0833 23.1714ZM53.1884 28.3681C53.6659 27.8907 54.4413 27.8907 54.9188 28.3681C55.3963 28.8456 55.3963 29.621 54.9188 30.0985L51.7924 33.2248C51.5629 33.4542 51.2517 33.583 50.9272 33.583C50.6028 33.583 50.2916 33.4542 50.0621 33.2248C49.8328 32.9953 49.7039 32.6841 49.7039 32.3597C49.7039 32.0352 49.8328 31.724 50.0621 31.4946L53.1884 28.3681ZM57.5582 32.3755C57.8717 32.2917 58.2055 32.3357 58.4865 32.4979C58.7675 32.6601 58.9726 32.9272 59.0568 33.2405C59.1406 33.554 59.0966 33.8879 58.9344 34.1689C58.7721 34.4499 58.505 34.655 58.1916 34.7391L53.9208 35.8835C53.6074 35.9673 53.2735 35.9232 52.9926 35.761C52.7116 35.5988 52.5065 35.3317 52.4223 35.0183C52.3385 34.7049 52.3826 34.371 52.5448 34.09C52.707 33.809 52.9742 33.6039 53.2875 33.5198L57.5582 32.3755Z" fill="black"/>
</svg>
